<?xml version="1.0" encoding="UTF-8" standalone="yes"?>
<!DOCTYPE svg PUBLIC "-//W3C//DTD SVG 1.1//EN" "http://www.w3.org/Graphics/SVG/1.1/DTD/svg11.dtd">

<svg width="425" height="168" viewBox="0 0 425 168" xmlns="http://www.w3.org/2000/svg" xmlns:xlink="http://www.w3.org/1999/xlink" version="1.1" baseProfile="full">
    <g transform="scale(1,-1) translate(0,-168)">
        <path d="M 45.754041 214.920606 L 4.000000 214.920606 L 4.000000 7.890152 L 45.754041 7.890152 L 45.754041 69.361379 L 61.121848 92.848027 L 103.745765 7.890152 L 150.719061 7.890152 L 88.087999 126.193269 L 144.339971 214.920606 L 99.106427 214.920606 L 46.333958 131.992441 L 45.754041 131.992441 Z M 161.737488 7.890152 L 203.491529 7.890152 L 203.491529 214.920606 L 161.737488 214.920606 Z M 268.152301 72.550924 L 226.398260 72.550924 L 226.398260 64.142124 Q 226.398260 35.436221 241.621088 20.068414 Q 256.843915 4.700608 292.218866 4.700608 Q 326.144025 4.700608 345.136314 19.633476 Q 364.128604 34.566345 364.128604 67.331669 Q 364.128604 76.900303 362.388852 84.729186 Q 360.649100 92.558069 356.154742 99.082138 Q 351.660383 105.606207 344.121459 111.260400 Q 336.582535 116.914593 324.694232 122.133848 L 292.508825 136.051862 Q 279.170729 141.561075 275.111308 148.085144 Q 271.051887 154.609213 271.051887 164.177848 Q 271.051887 168.817185 272.066742 173.166565 Q 273.081598 177.515944 275.836205 180.850468 Q 278.590811 184.184992 283.230149 186.214703 Q 287.869487 188.244413 294.828494 188.244413 Q 307.006756 188.244413 312.226011 180.270551 Q 317.445266 172.296689 317.445266 157.508799 L 357.459556 157.508799 L 357.459556 163.307972 Q 357.459556 178.095861 352.675238 188.679351 Q 347.890921 199.262840 339.337142 206.076868 Q 330.783363 212.890895 319.040039 215.935461 Q 307.296715 218.980026 293.378701 218.980026 Q 263.512963 218.980026 246.405405 203.902178 Q 229.297846 188.824330 229.297846 158.088717 Q 229.297846 145.330537 232.487391 135.616924 Q 235.676936 125.903310 242.490963 118.509365 Q 249.304991 111.115420 259.453543 105.606207 Q 269.602094 100.096993 283.520108 95.457655 Q 293.958618 91.978152 301.062604 88.643628 Q 308.166590 85.309103 312.515970 81.249683 Q 316.865349 77.190262 318.750080 72.115986 Q 320.634811 67.041710 320.634811 60.082704 Q 320.634811 47.034566 312.950908 40.800456 Q 305.267004 34.566345 295.698370 34.566345 Q 287.579529 34.566345 282.215294 36.886014 Q 276.851060 39.205683 273.661515 43.265104 Q 270.471970 47.324524 269.312136 53.268676 Q 268.152301 59.212828 268.152301 66.461793 Z M 385.005624 214.920606 L 385.005624 7.890152 L 426.759665 7.890152 L 426.759665 99.807034 L 475.472713 99.807034 L 475.472713 7.890152 L 517.226754 7.890152 L 517.226754 214.920606 L 475.472713 214.920606 L 475.472713 135.761903 L 426.759665 135.761903 L 426.759665 214.920606 Z M 632.630284 85.889021 L 612.623140 178.965737 L 612.043222 178.965737 L 592.036078 85.889021 Z M 638.139498 214.920606 L 692.941677 7.890152 L 649.447884 7.890152 L 639.879250 51.673904 L 584.787112 51.673904 L 575.218478 7.890152 L 531.724685 7.890152 L 586.526864 214.920606 Z M 755.572738 214.920606 L 707.439608 214.920606 L 707.439608 7.890152 L 745.714145 7.890152 L 745.714145 152.869461 L 746.294062 152.869461 L 797.326779 7.890152 L 844.879993 7.890152 L 844.879993 214.920606 L 806.605455 214.920606 L 806.605455 73.130841 L 806.025538 73.130841 Z" transform="scale(0.500000,0.500000) translate(0.000000,56.000000)" fill="#cab3a8" opacity="1.000000"></path>
        <path d="M 219.405095 331.680634 Q 220.386174 331.026581 221.530767 328.410368 Q 222.675360 325.794156 223.329414 321.215783 Q 223.329414 320.234704 223.002387 319.090111 Q 222.675360 317.945518 222.675360 317.291464 L 222.675360 313.367145 Q 222.021307 309.769853 221.367254 306.009047 Q 220.713201 302.248242 219.405095 298.977976 L 215.153749 286.223939 Q 218.751041 288.840152 222.348334 290.965825 Q 225.945626 293.091497 228.888865 295.053657 L 228.561839 295.053657 Q 235.756424 299.632029 242.951008 303.556348 Q 250.145593 307.480667 257.667205 311.077959 Q 257.994231 311.077959 258.811798 311.404986 Q 259.629364 311.732013 260.283417 312.059039 Q 263.553683 313.694172 266.496922 315.002278 Q 269.440161 316.310385 273.037454 316.964438 Q 273.364480 316.964438 273.527994 317.127951 Q 273.691507 317.291464 274.018534 317.291464 L 280.232039 319.580650 Q 280.886092 320.234704 282.848251 320.725244 Q 284.810411 321.215783 287.099597 321.869837 L 302.796873 321.869837 Q 303.777952 321.215783 305.249572 320.561730 Q 306.721192 319.907677 309.337404 317.291464 L 311.626590 314.021199 L 312.934697 310.423906 Q 313.261723 309.769853 313.261723 308.625260 Q 313.261723 307.480667 313.261723 306.499587 Q 313.261723 304.210401 313.098210 302.738782 Q 312.934697 301.267162 312.280644 298.977976 Q 310.972537 294.399604 309.664431 290.802311 Q 308.356325 287.205019 306.067138 283.607727 L 302.796873 276.413142 L 301.488766 274.450982 L 297.891474 270.526663 Q 293.640128 263.659105 288.080677 257.445600 Q 282.848251 251.232095 277.452313 245.345617 Q 272.056374 239.459138 265.842869 233.899686 Q 263.226656 231.283474 259.465851 228.013208 Q 255.705045 224.742942 253.088832 223.107809 Q 250.472620 220.818623 246.875327 218.365924 Q 243.278035 215.913224 240.661822 213.297012 Q 238.045610 211.334852 234.611831 209.536206 Q 231.178051 207.737560 229.542919 206.102427 L 224.964546 203.159188 L 223.329414 202.178108 L 223.656440 202.178108 L 220.713201 200.542975 L 221.040227 200.542975 L 215.153749 196.945683 L 215.153749 197.599736 L 208.940244 193.021364 L 206.978085 192.040284 Q 205.997005 191.059204 205.342952 191.059204 Q 208.613217 191.386231 211.229430 191.386231 Q 213.845643 191.386231 217.115909 191.386231 L 219.078068 191.386231 Q 223.656440 191.386231 227.253733 191.059204 Q 230.851025 190.732178 234.448317 189.424071 Q 241.969929 187.134885 246.548301 183.210566 L 246.548301 183.864619 Q 252.107753 180.594354 256.032072 174.053822 Q 259.956391 168.494370 260.610444 161.626812 Q 261.918550 153.451147 260.610444 145.602509 L 259.629364 142.332244 Q 261.264497 142.332244 262.736117 142.822784 Q 264.207736 143.313323 265.842869 143.313323 L 274.018534 144.621430 Q 279.250959 144.948456 284.646897 146.256563 Q 290.042836 147.564669 295.929314 149.199802 L 312.934697 154.759254 L 317.840095 156.721413 L 317.513069 156.394387 Q 318.494149 157.048440 319.311715 156.557900 Q 320.129281 156.067360 321.110361 155.413307 Q 321.110361 155.086280 321.273874 154.922767 Q 321.437388 154.759254 321.437388 154.432227 L 321.437388 154.105201 Q 322.091441 151.161961 319.148202 150.180882 Q 318.821175 150.180882 318.330635 150.017368 Q 317.840095 149.853855 317.513069 149.853855 L 316.859016 149.853855 Q 315.550909 148.545749 311.136050 146.583589 Q 306.721192 144.621430 300.344173 142.659270 Q 293.967155 140.697111 286.772570 139.061978 Q 279.577985 137.426845 273.037454 136.445765 L 257.667205 134.156579 Q 257.340178 132.521446 255.378018 131.213340 Q 254.069912 127.943074 251.944239 124.182268 Q 249.818567 120.421463 247.529381 116.824170 L 247.856407 116.824170 L 238.372636 103.743107 Q 236.737503 102.107974 234.938857 99.982301 Q 233.140211 97.856629 231.505078 95.894469 L 225.945626 89.353938 Q 222.675360 86.410698 221.040227 84.775565 Q 219.405095 83.140433 216.461855 80.524220 Q 209.921324 74.637741 203.544305 69.568829 Q 197.167287 64.499917 191.607835 59.267492 Q 177.545692 49.783721 163.156523 41.608057 Q 148.767353 33.432392 134.378184 26.564834 Q 119.989014 20.351329 104.945791 15.772957 Q 89.902569 11.194585 74.532319 7.924319 Q 57.853964 4.327027 43.137768 4.000000 L 41.502635 4.000000 Q 40.521555 4.000000 38.722909 4.000000 Q 36.924262 4.000000 35.289130 4.327027 Q 34.635076 4.327027 32.345890 4.327027 Q 30.056704 4.327027 28.748598 4.981080 Q 27.113465 4.981080 24.987792 5.471620 Q 22.862120 5.962159 21.881040 6.616213 L 22.208066 6.616213 Q 17.956721 7.597292 15.667535 9.232425 L 15.667535 9.559452 Q 15.340508 9.559452 14.686455 10.049992 Q 14.032402 10.540532 13.705375 10.867558 Q 13.051322 11.521611 11.743216 12.175665 Q 10.435109 12.829718 9.781056 13.483771 Q 8.799977 14.791877 8.309437 15.772957 Q 7.818897 16.754037 7.164844 17.735116 Q 5.202684 21.005382 4.875658 23.948621 Q 4.548631 26.237807 4.548631 27.872940 Q 4.548631 29.508073 4.548631 31.143206 Q 4.875658 35.067525 6.183764 38.501304 Q 7.491870 41.935083 9.127003 45.205349 Q 9.781056 45.859402 9.781056 46.513456 Q 10.762136 49.456695 12.560782 52.563447 Q 14.359428 55.670200 16.975641 59.267492 Q 18.610774 61.556678 20.082394 63.355324 Q 21.554013 65.153971 23.189146 66.789104 L 27.113465 71.040449 Q 29.729678 73.656662 32.836430 76.109361 Q 35.943183 78.562060 38.559395 81.178273 L 44.118847 84.775565 Q 47.062086 87.064752 49.678299 89.190424 Q 52.294512 91.316097 55.237751 94.259336 Q 55.564778 97.856629 56.872884 101.453921 Q 57.853964 105.051213 58.835043 109.302559 Q 59.816123 113.553905 61.778283 116.824170 Q 63.740442 121.402543 65.702602 124.836322 Q 67.664761 128.270101 69.299894 131.213340 L 69.299894 130.886313 Q 73.224213 137.426845 77.966098 144.784943 Q 82.707984 152.143041 87.286356 159.010599 Q 90.229595 164.243025 94.317427 169.311937 Q 98.405260 174.380849 102.329579 178.959221 Q 103.637685 180.594354 104.782278 182.065973 Q 105.926871 183.537593 107.234977 184.845699 L 112.794429 191.386231 L 116.064695 194.983523 Q 118.026855 198.253789 120.643067 201.360542 Q 123.259280 204.467294 126.202519 207.410533 L 131.107918 211.661879 L 135.032237 216.567278 L 138.302503 219.837543 L 148.113300 230.302394 L 159.886257 241.094271 L 162.175443 242.402377 L 164.137602 244.364537 Q 167.080842 247.307776 170.024081 250.414529 Q 172.967320 253.521281 176.564612 256.137494 Q 182.124064 261.696946 188.991623 267.092884 Q 195.859181 272.488823 202.072686 277.067195 Q 202.072686 277.394222 202.236199 277.394222 Q 202.399712 277.394222 202.399712 277.721248 Q 202.399712 278.375301 203.380792 279.029354 Q 204.361872 279.683408 204.361872 280.337461 L 205.997005 287.532046 L 207.632138 291.783391 L 207.632138 291.456365 L 209.921324 300.940135 L 210.575377 304.537428 Q 210.575377 305.518508 211.065917 307.317154 Q 211.556457 309.115800 211.556457 309.769853 L 212.537536 315.329305 Q 212.537536 316.964438 212.537536 320.561730 Q 212.537536 324.159023 212.210510 325.794156 Q 212.210510 326.775235 212.864563 327.429288 Q 213.518616 328.083342 214.172669 328.737395 L 214.499696 329.064421 Q 214.499696 329.718474 215.807802 330.536041 Q 217.115909 331.353607 217.769962 331.353607 L 218.424015 331.680634 Z M 146.478167 121.075516 Q 136.667370 119.113356 126.366032 116.333631 Q 116.064695 113.553905 107.234977 110.283639 Q 106.907951 109.956612 106.744437 109.793099 Q 106.580924 109.629586 105.926871 108.975532 L 100.694446 103.089054 L 95.789047 98.510682 Q 93.826888 96.221496 91.701215 93.768796 Q 89.575542 91.316097 86.959329 89.353938 Q 81.726904 82.813406 74.205293 78.562060 L 70.935027 75.945848 L 67.991788 74.637741 Q 66.683681 74.310715 65.375575 74.310715 Q 64.067469 74.310715 62.759362 74.310715 Q 61.451256 74.310715 60.470176 74.637741 Q 59.816123 75.291795 59.325583 75.291795 Q 58.835043 75.291795 58.180990 75.945848 Q 57.526937 78.235034 56.872884 78.562060 Q 56.218831 80.524220 56.218831 82.159353 Q 55.564778 82.813406 55.564778 84.775565 L 51.313432 82.813406 Q 47.389113 80.197193 42.483714 76.109361 Q 37.578316 72.021529 33.981023 69.078290 Q 31.364811 66.789104 28.912111 63.845864 Q 26.459412 60.902625 23.843199 58.613439 L 17.956721 50.437774 Q 16.321588 47.821562 15.013482 45.695889 Q 13.705375 43.570216 12.724296 40.626977 Q 10.762136 38.337791 10.762136 34.740499 Q 9.781056 33.105366 9.781056 31.797259 L 9.781056 27.872940 Q 10.108083 26.891861 10.435109 25.256728 Q 10.762136 23.621595 10.762136 22.640515 L 11.416189 21.659435 L 12.397269 21.005382 Q 13.378349 19.370249 17.956721 17.735116 L 20.572933 16.099983 Q 20.899960 16.099983 21.390500 15.772957 Q 21.881040 15.445930 22.208066 15.445930 Q 24.497252 14.464851 26.622925 13.974311 Q 28.748598 13.483771 30.383731 13.156744 Q 32.999944 12.502691 35.943183 12.502691 Q 38.886422 12.502691 41.829661 12.502691 Q 46.408033 12.502691 49.024246 12.993231 Q 51.640459 13.483771 56.545857 14.137824 Q 81.399877 17.408090 107.071464 26.074294 Q 132.743051 34.740499 155.961938 47.167509 Q 163.483549 51.418854 169.533541 55.670200 Q 175.583533 59.921545 181.142985 63.845864 Q 188.010543 68.751263 194.224048 73.166122 Q 200.437553 77.580981 205.669978 82.813406 L 211.556457 88.699884 L 215.807802 92.624203 L 225.618600 101.780948 Q 228.888865 106.032293 232.322645 110.610665 Q 235.756424 115.189037 240.334796 121.402543 L 240.334796 121.075516 L 241.642902 123.364702 Q 242.623982 125.980915 244.422628 127.943074 Q 246.221274 129.905234 247.856407 132.848473 L 238.372636 132.194420 Q 236.410477 132.194420 233.794264 131.867393 Q 231.178051 131.540367 229.542919 131.540367 Q 224.310493 131.213340 219.568608 130.886313 Q 214.826722 130.559287 210.248350 129.905234 L 198.475393 128.270101 L 186.048383 126.961994 L 184.086224 126.961994 Q 182.778118 126.634968 181.142985 126.634968 Q 180.161905 126.307941 177.872719 126.307941 L 169.370028 124.999835 L 162.175443 123.691729 Q 161.521390 123.691729 160.867337 123.528215 Q 160.213283 123.364702 159.886257 123.364702 L 158.578151 123.364702 L 153.999778 122.710649 Q 151.383566 122.710649 149.911946 122.056596 Q 148.440327 121.402543 146.478167 121.075516 Z M 122.932253 123.364702 L 138.302503 126.961994 L 143.861954 127.943074 Q 146.151140 128.597127 148.440327 129.087667 Q 150.729513 129.578207 154.326805 129.905234 L 160.213283 131.213340 L 163.483549 131.213340 Q 164.137602 131.213340 165.445709 131.540367 L 181.142985 133.829553 Q 181.797038 133.829553 182.451091 133.993066 Q 183.105144 134.156579 184.086224 134.156579 Q 186.048383 134.156579 187.029463 134.810632 L 200.110526 136.118739 L 212.537536 137.753872 L 233.794264 140.043058 L 242.296955 141.024137 L 250.145593 142.005217 Q 250.145593 142.986297 250.472620 143.640350 Q 250.472620 144.294403 250.799646 144.621430 Q 251.126673 144.948456 251.453699 145.602509 Q 251.780726 146.583589 252.107753 148.545749 Q 252.434779 150.507908 252.434779 151.161961 Q 252.761806 153.124121 252.598293 154.105201 Q 252.434779 155.086280 251.780726 156.721413 Q 251.780726 159.010599 251.453699 160.318706 Q 251.453699 160.972759 251.290186 161.626812 Q 251.126673 162.280865 251.126673 162.934918 L 249.491540 165.878158 Q 248.837487 167.513290 247.856407 169.311937 Q 246.875327 171.110583 245.567221 172.091663 Q 242.296955 175.688955 239.353716 177.978141 Q 237.391557 178.959221 235.265884 179.940300 Q 233.140211 180.921380 230.196972 181.575433 Q 223.983467 183.537593 217.769962 184.191646 L 203.380792 184.191646 Q 199.783500 183.864619 196.186207 183.047053 Q 192.588915 182.229487 188.991623 181.575433 Q 187.029463 180.921380 187.029463 180.921380 L 185.394330 180.267327 Q 183.432171 178.632194 181.142985 177.978141 L 176.564612 175.361928 L 171.659214 173.072742 L 166.426788 171.437609 Q 167.407868 171.437609 164.791656 170.783556 L 162.175443 170.783556 Q 161.194363 170.783556 159.559230 172.091663 Q 159.232204 172.091663 159.232204 172.745716 Q 158.905177 173.072742 158.905177 175.034902 Q 158.905177 176.343008 159.886257 176.997061 Q 160.540310 177.978141 161.684903 178.795707 Q 162.829496 179.613274 163.483549 180.267327 Q 163.483549 180.594354 165.118682 181.248407 L 168.388948 181.902460 L 171.659214 183.864619 L 174.275426 184.518673 L 173.948400 184.518673 L 176.564612 185.826779 Q 176.891639 185.826779 177.382179 185.990292 Q 177.872719 186.153806 178.199745 186.153806 L 178.526772 186.153806 L 180.815958 187.788938 L 182.124064 188.442992 L 181.797038 188.442992 L 188.010543 192.040284 Q 189.318649 192.040284 191.607835 193.675417 L 195.532154 195.964603 L 198.802420 197.926762 L 201.745659 199.561895 L 204.688898 201.524055 L 205.015925 201.851081 Q 208.286191 204.794321 210.248350 205.121347 L 217.115909 209.045666 L 219.732121 210.353772 L 222.675360 211.661879 L 222.348334 211.661879 L 225.945626 213.624038 Q 228.234812 214.605118 229.379405 215.749711 Q 230.523998 216.894304 232.159131 218.202410 Q 233.467238 218.202410 234.121291 219.510517 L 236.083450 221.145650 L 244.586141 227.359155 L 248.837487 230.629421 Q 251.780726 233.245633 255.214505 236.188872 Q 258.648284 239.132112 261.591523 241.094271 Q 265.188816 244.364537 270.748268 250.251015 Q 276.307720 256.137494 279.577985 260.388839 Q 281.213118 262.350999 283.011765 264.313158 Q 284.810411 266.275318 286.445544 268.891530 L 286.772570 269.218557 L 290.696889 273.469903 L 290.042836 273.469903 L 294.621208 279.356381 Q 296.583368 282.953673 298.545527 286.060426 Q 300.507687 289.167178 302.142820 292.764471 L 304.432006 299.959056 Q 304.432006 300.940135 304.759032 301.921215 Q 305.086059 302.902295 305.413085 303.556348 Q 305.413085 303.883375 305.086059 304.537428 Q 305.086059 304.864454 304.759032 305.354994 Q 304.432006 305.845534 304.432006 306.172561 Q 304.432006 307.153640 304.104979 307.480667 Q 304.104979 308.134720 303.777952 308.625260 Q 303.450926 309.115800 302.796873 310.096880 L 298.545527 312.713092 Q 297.564447 313.040119 296.092828 313.203632 Q 294.621208 313.367145 293.967155 313.367145 Q 293.313102 313.367145 292.986075 313.367145 Q 292.659049 313.367145 291.023916 313.040119 L 280.886092 311.077959 L 278.596906 310.096880 L 279.250959 310.096880 Q 275.653666 309.115800 272.056374 307.644180 Q 268.459082 306.172561 264.534763 304.537428 L 261.918550 303.556348 L 262.245577 303.556348 L 251.453699 298.323923 Q 249.164513 297.669870 246.384787 295.871223 Q 243.605062 294.072577 241.642902 292.764471 L 241.969929 292.764471 L 235.429397 289.494205 L 221.040227 280.010434 Q 219.078068 279.356381 217.442935 278.211788 Q 215.807802 277.067195 214.172669 275.759089 L 210.575377 273.142876 Q 209.921324 271.834770 208.122678 268.237477 Q 206.324031 264.640185 205.669978 263.005052 L 204.688898 260.715866 Q 204.361872 259.080733 203.217279 256.955060 Q 202.072686 254.829387 200.764579 253.194255 L 201.418633 253.521281 L 198.802420 248.288856 L 198.475393 246.653723 Q 198.148367 246.326696 198.148367 245.672643 Q 198.148367 245.018590 198.148367 244.364537 L 190.626755 232.591580 L 188.991623 230.302394 L 189.318649 230.629421 L 186.702436 225.396995 Q 186.375410 225.069969 186.375410 224.415915 L 183.432171 220.164570 L 183.759197 220.491596 L 180.815958 214.278091 Q 178.853799 212.315932 178.853799 211.007826 Q 178.853799 210.680799 178.363259 210.190259 Q 177.872719 209.699719 177.872719 209.372693 Q 176.237586 207.737560 173.784887 203.649728 Q 171.332187 199.561895 169.043001 195.964603 L 162.829496 184.518673 L 162.829496 184.845699 L 161.521390 181.575433 L 156.943018 176.343008 L 157.270044 176.343008 Q 155.307885 172.091663 149.094380 165.551131 L 144.516008 157.702493 Q 143.534928 156.721413 142.717361 155.576820 Q 141.899795 154.432227 140.918715 152.797094 Q 139.283582 151.161961 137.975476 149.363315 Q 136.667370 147.564669 135.032237 145.929536 L 135.686290 146.256563 L 131.761971 140.043058 Q 129.145758 136.445765 126.856572 133.339013 Q 124.567386 130.232260 121.951173 127.289021 L 118.026855 124.018755 L 115.410642 121.075516 Z M 194.551074 261.369919 Q 195.532154 262.350999 195.532154 263.005052 Q 189.318649 258.426680 185.067304 254.502361 Q 180.815958 250.578042 176.891639 246.326696 Q 174.275426 243.383457 170.351107 239.949678 Q 166.426788 236.515899 162.829496 233.899686 Q 162.502470 233.245633 161.030850 231.937527 Q 159.559230 230.629421 158.905177 230.302394 Q 158.251124 228.994288 156.779504 227.686181 Q 155.307885 226.378075 153.999778 225.396995 L 146.805194 218.529437 L 143.861954 214.278091 L 137.648449 208.718640 Q 135.686290 208.391613 135.032237 206.756480 L 126.529546 196.291630 L 117.045775 184.845699 Q 117.045775 183.210566 115.410642 182.556513 L 112.794429 179.286247 Q 109.524163 176.670035 106.907951 172.418689 Q 105.926871 171.437609 104.455251 169.802476 Q 102.983632 168.167344 101.675525 167.186264 Q 97.097153 160.645732 92.682295 153.614661 Q 88.267436 146.583589 84.016090 140.043058 Q 79.437718 132.521446 74.695833 124.672808 Q 69.953947 116.824170 67.010708 108.975532 L 65.702602 105.378240 L 64.394495 99.491762 Q 70.608000 102.435001 78.620152 106.359320 Q 86.632303 110.283639 93.172834 113.226878 L 96.116074 114.534984 L 101.675525 116.824170 L 102.656605 118.459303 L 106.907951 123.364702 Q 107.889031 124.999835 109.197137 126.471455 Q 110.505243 127.943074 112.794429 130.232260 L 114.102536 131.540367 Q 114.756589 132.194420 115.737668 133.666039 Q 116.718748 135.137659 117.045775 136.772792 L 122.278200 143.640350 L 125.875492 148.218722 L 126.856572 150.180882 Q 127.510625 150.834935 128.164679 151.979528 Q 128.818732 153.124121 129.472785 153.778174 L 131.107918 155.413307 L 138.302503 166.859237 Q 138.956556 167.186264 138.956556 167.676804 Q 138.956556 168.167344 139.610609 168.167344 Q 139.937635 168.821397 140.591689 169.475450 Q 141.245742 170.129503 141.572768 170.620043 Q 141.899795 171.110583 142.553848 171.437609 L 144.516008 175.034902 L 147.132220 178.959221 Q 147.786273 179.940300 148.930866 180.921380 Q 150.075459 181.902460 150.075459 182.556513 L 152.691672 187.134885 Q 153.345725 187.788938 153.999778 188.770018 Q 154.653832 189.424071 155.307885 190.568664 Q 155.961938 191.713257 156.615991 193.021364 L 156.615991 192.694337 Q 157.597071 195.310550 158.251124 196.618656 Q 158.905177 197.926762 159.886257 199.561895 Q 160.867337 199.888922 161.030850 200.052435 Q 161.194363 200.215948 161.521390 200.870002 Q 162.175443 201.851081 163.483549 204.467294 Q 164.137602 205.775400 164.791656 206.756480 L 164.137602 206.756480 Q 164.791656 207.410533 165.445709 208.391613 Q 166.099762 209.372693 168.388948 211.661879 L 171.986240 219.510517 Q 172.640294 221.145650 173.784887 222.617269 Q 174.929480 224.088889 175.583533 225.069969 L 178.853799 231.937527 L 182.778118 239.459138 Q 183.759197 241.094271 185.067304 244.201024 Q 186.375410 247.307776 187.683516 248.942909 L 187.683516 248.615882 L 189.972702 251.886148 Z M 64.721522 82.486379 L 65.048548 82.159353 Q 65.048548 82.159353 65.702602 82.486379 Q 67.664761 82.813406 68.482328 83.140433 Q 69.299894 83.467459 69.953947 83.794486 Q 70.608000 84.775565 71.589080 85.266105 Q 72.570160 85.756645 73.878266 86.410698 L 74.859346 87.718805 Q 80.745824 91.970150 84.343117 96.548522 L 89.575542 101.453921 L 90.556622 103.743107 Q 85.978250 101.780948 81.726904 99.982301 Q 77.475559 98.183655 73.878266 95.894469 Q 71.916107 95.240416 69.626921 93.768796 Q 67.337734 92.297177 65.702602 91.316097 L 62.105309 89.353938 L 62.105309 88.045831 Q 62.105309 87.718805 62.268822 87.555291 Q 62.432336 87.391778 62.432336 86.737725 Q 62.432336 84.121512 63.086389 83.467459 Z M 405.156192 271.834770 Q 405.810246 271.834770 406.464299 271.671256 Q 407.118352 271.507743 407.118352 271.180717 L 409.734565 268.564504 Q 410.061591 267.256398 410.061591 264.967211 L 410.061591 260.388839 L 409.080511 257.445600 Q 408.426458 255.483441 408.426458 254.829387 L 407.118352 251.559122 L 406.464299 250.578042 Q 406.137272 249.923989 405.319706 248.615882 Q 404.502139 247.307776 404.502139 246.980750 Q 402.539980 242.729404 402.049440 241.911838 Q 401.558900 241.094271 400.904847 240.113191 L 400.904847 240.440218 L 399.596741 237.824005 Q 396.980528 233.899686 394.527829 229.975367 Q 392.075129 226.051048 388.477837 221.472676 L 377.685960 206.429454 L 374.088667 201.851081 L 372.453534 199.888922 L 368.529215 194.983523 L 358.391391 184.845699 L 354.794099 180.594354 L 351.196807 176.670035 L 347.272488 173.072742 L 344.329248 170.456530 L 342.367089 168.821397 L 341.058983 167.513290 L 337.134664 163.915998 Q 336.480611 163.588971 335.172504 162.444378 Q 333.864398 161.299785 333.210345 160.645732 L 330.594132 156.721413 L 330.921159 157.048440 L 328.958999 153.778174 L 326.342786 148.872775 L 324.053600 145.602509 L 322.418468 142.005217 L 319.148202 133.829553 L 329.286026 144.621430 Q 330.594132 145.929536 330.921159 146.093049 Q 331.248185 146.256563 332.556292 147.891696 L 334.191424 149.853855 Q 334.518451 150.507908 335.172504 150.834935 Q 335.826557 151.161961 336.153584 151.816015 L 338.769797 154.105201 Q 340.731956 156.394387 343.675195 159.010599 Q 346.618435 161.626812 349.234647 163.915998 L 352.504913 167.186264 L 360.353551 172.418689 Q 360.353551 172.091663 360.680577 172.091663 Q 361.007604 172.091663 361.988684 173.072742 Q 363.623817 173.726795 366.076516 173.726795 Q 368.529215 173.726795 369.183269 171.764636 Q 369.183269 170.783556 369.510295 169.638963 Q 369.837322 168.494370 369.837322 166.859237 Q 369.837322 166.205184 369.510295 164.897078 Q 369.183269 163.588971 368.529215 162.607892 Q 368.529215 162.280865 367.875162 161.626812 Q 367.548136 161.299785 367.548136 160.645732 Q 366.894083 158.029520 365.585976 156.067360 Q 364.277870 154.105201 363.623817 153.124121 L 363.623817 153.778174 L 361.661657 148.872775 L 360.026524 145.929536 Q 360.026524 144.621430 359.372471 144.294403 L 357.737338 139.716031 Q 357.410312 139.389004 357.410312 138.407925 L 357.410312 132.521446 Q 357.410312 132.194420 358.391391 131.540367 Q 358.391391 131.213340 358.718418 131.213340 L 361.661657 131.213340 Q 362.969764 131.213340 363.623817 131.540367 Q 367.221109 132.521446 367.548136 132.848473 L 368.856242 133.829553 Q 370.164348 133.829553 370.818401 135.137659 Q 372.453534 135.791712 374.415694 137.590358 Q 376.377853 139.389004 378.012986 140.697111 L 386.842704 147.891696 L 389.785943 151.161961 Q 390.112970 151.816015 390.930536 152.470068 Q 391.748103 153.124121 392.402156 153.778174 L 394.691342 155.413307 Q 395.345395 157.048440 397.961608 156.394387 Q 399.269714 156.394387 399.269714 152.797094 L 398.288634 151.488988 L 395.672422 148.872775 L 394.037289 146.583589 L 391.748103 144.621430 Q 390.767023 142.332244 388.804863 142.005217 L 384.553518 136.772792 L 378.667039 131.540367 L 373.434614 127.289021 Q 371.799481 125.653888 367.711649 124.182268 Q 363.623817 122.710649 360.680577 122.710649 Q 360.353551 122.710649 360.026524 123.037675 Q 359.699498 123.364702 359.045445 123.364702 Q 356.429232 123.364702 355.121126 124.018755 L 354.794099 124.672808 L 353.158966 126.307941 Q 351.850860 127.289021 351.850860 128.597127 Q 351.196807 129.578207 351.196807 129.905234 L 351.196807 131.540367 Q 351.196807 132.521446 350.869780 132.848473 Q 350.869780 133.829553 350.869780 135.791712 Q 350.869780 137.753872 351.196807 139.061978 L 351.196807 141.678191 Q 352.177886 142.005217 352.177886 143.313323 Q 352.177886 144.948456 352.504913 145.929536 Q 352.504913 146.256563 352.995453 146.747103 Q 353.485993 147.237642 353.485993 147.891696 L 356.102205 152.797094 L 357.410312 155.740333 L 361.661657 163.588971 L 361.661657 164.243025 Q 361.661657 164.570051 361.988684 164.570051 L 360.353551 163.261945 L 359.045445 162.607892 L 357.410312 160.972759 L 353.485993 158.356546 L 341.713036 147.891696 L 334.845478 141.024137 Q 332.229265 139.061978 329.613052 135.791712 L 326.669813 132.848473 L 323.726574 128.924154 Q 323.072521 128.270101 322.745494 127.616048 Q 322.418468 126.961994 322.091441 126.307941 Q 320.129281 124.999835 320.129281 124.018755 Q 319.148202 123.364702 318.494149 122.710649 Q 317.840095 122.056596 317.186042 121.729569 Q 316.859016 120.748489 313.915776 120.748489 Q 313.261723 120.748489 312.607670 121.239029 Q 311.953617 121.729569 311.626590 123.037675 Q 311.626590 123.364702 311.299564 123.691729 Q 310.972537 124.018755 310.972537 124.672808 L 310.972537 128.270101 Q 310.972537 129.905234 311.626590 130.886313 Q 311.626590 131.867393 311.790104 132.521446 Q 311.953617 133.175499 312.280644 133.829553 Q 312.934697 134.810632 313.261723 135.955225 Q 313.588750 137.099818 314.242803 138.407925 L 313.915776 138.080898 Q 314.569830 140.370084 315.387396 142.659270 Q 316.204962 144.948456 317.186042 147.237642 L 320.783335 154.105201 L 323.726574 159.664652 L 323.072521 159.337626 L 326.996840 166.532211 L 327.650893 167.513290 Q 327.650893 167.840317 328.304946 168.821397 Q 328.958999 169.802476 328.958999 170.129503 L 332.229265 175.361928 L 339.096823 187.788938 L 344.002222 194.983523 L 348.907621 203.813241 L 353.813019 211.988905 L 356.429232 216.567278 L 356.102205 216.240251 Q 356.429232 216.567278 357.083285 217.548357 Q 357.737338 218.202410 358.227878 219.019977 Q 358.718418 219.837543 359.372471 220.491596 L 359.045445 220.491596 Q 361.661657 224.415915 364.114357 228.340234 Q 366.567056 232.264553 369.510295 236.188872 L 371.145428 238.478058 Q 372.780561 241.748324 375.069747 244.037510 Q 376.050827 245.672643 378.503526 248.288856 Q 380.956225 250.905069 381.283252 251.232095 Q 381.610279 251.559122 381.610279 252.213175 L 382.918385 253.848308 L 384.226491 255.156414 Q 385.207571 257.445600 387.169731 258.753706 Q 387.496757 259.407760 388.477837 260.715866 Q 389.458917 262.023972 390.112970 262.678025 L 394.037289 266.275318 L 395.345395 267.256398 L 398.288634 269.872610 Q 399.923767 271.180717 401.722413 271.507743 Q 403.521060 271.834770 405.156192 271.834770 Z M 391.748103 253.848308 L 389.785943 251.559122 Q 387.823784 250.251015 387.496757 248.288856 L 382.591358 242.402377 Q 381.283252 240.767245 380.138659 239.295625 Q 378.994066 237.824005 378.012986 236.188872 L 373.434614 228.994288 L 373.761641 229.321314 L 367.221109 218.856464 L 363.623817 213.297012 L 363.623817 213.624038 L 358.391391 205.121347 Q 355.775179 201.851081 355.121126 199.888922 L 353.813019 197.599736 L 349.561674 191.713257 L 343.021142 182.229487 L 343.348169 182.556513 L 340.404929 178.305168 L 338.769797 174.380849 L 339.750876 175.361928 L 341.386009 177.324088 L 344.329248 179.940300 Q 344.656275 180.267327 345.800868 181.575433 Q 346.945461 182.883540 348.253567 184.028133 Q 349.561674 185.172726 350.706267 186.317319 Q 351.850860 187.461912 352.177886 188.115965 L 356.429232 192.694337 L 362.969764 199.561895 L 363.950843 201.197028 Q 364.277870 201.524055 364.604896 201.524055 L 369.837322 208.391613 L 370.491375 209.045666 Q 370.818401 209.372693 370.981915 209.699719 Q 371.145428 210.026746 371.472455 210.353772 L 375.723800 215.259171 L 377.685960 218.529437 Q 378.340013 219.510517 378.994066 220.491596 Q 379.648119 221.472676 380.629199 222.453756 L 381.937305 224.088889 L 384.553518 228.340234 L 384.226491 228.013208 L 386.188651 230.629421 L 388.477837 234.880766 L 389.785943 236.515899 L 389.458917 236.188872 L 390.439996 237.824005 L 394.037289 242.729404 L 395.999448 246.980750 L 395.672422 246.653723 Q 396.653501 248.615882 397.961608 250.414529 Q 399.269714 252.213175 399.923767 254.502361 L 401.885927 258.753706 L 402.212953 259.080733 L 403.521060 262.678025 L 403.521060 263.005052 Q 401.231874 262.678025 399.923767 260.715866 L 398.288634 259.734786 L 392.402156 253.848308 Z M 425.104814 178.632194 Q 426.085894 178.632194 427.066973 178.141654 Q 428.048053 177.651114 429.029133 176.997061 Q 430.337239 176.997061 430.991292 175.688955 Q 431.972372 175.034902 431.972372 174.380849 Q 431.972372 173.399769 432.462912 173.072742 Q 432.953452 172.745716 432.953452 171.764636 L 432.953452 172.091663 Q 434.261558 169.802476 433.934532 168.003830 Q 433.607505 166.205184 432.953452 164.570051 L 430.664266 161.626812 L 427.721027 157.702493 Q 427.394000 157.375466 426.739947 156.721413 Q 426.085894 156.067360 425.758867 155.413307 Q 425.431840 155.086280 425.431840 154.759254 Q 424.777787 154.105201 424.777787 154.105201 Q 424.777787 154.105201 424.123734 153.451147 Q 422.815628 151.488988 421.507522 148.055209 Q 420.199415 144.621430 419.545362 142.659270 L 418.237256 138.407925 Q 418.237256 137.753872 418.073742 137.590358 Q 417.910229 137.426845 417.910229 136.772792 Q 417.910229 136.118739 418.237256 135.137659 Q 418.237256 134.483606 418.400769 133.829553 Q 418.564282 133.175499 418.564282 132.521446 L 419.545362 130.559287 L 419.545362 130.886313 Q 419.545362 131.540367 420.526442 130.559287 L 420.199415 130.559287 L 422.488601 128.924154 L 423.796708 128.924154 Q 424.123734 128.924154 424.450761 128.597127 Q 424.777787 128.270101 425.104814 128.270101 Q 425.431840 128.924154 425.758867 128.597127 Q 426.085894 128.270101 426.739947 128.270101 Q 427.394000 128.924154 428.375080 128.924154 Q 429.356159 128.924154 430.010213 128.924154 Q 430.664266 128.924154 430.827779 129.251180 Q 430.991292 129.578207 431.645346 129.578207 L 434.261558 130.232260 L 436.223718 130.886313 L 439.166957 132.521446 L 445.380462 136.772792 L 448.650728 138.734951 Q 450.285861 140.370084 451.757480 141.841704 Q 453.229100 143.313323 454.864233 144.294403 L 458.134499 147.237642 L 469.580429 158.029520 Q 470.234482 159.010599 471.052049 159.174113 Q 471.869615 159.337626 473.504748 159.991679 L 475.139881 158.683573 Q 476.447987 157.048440 475.793934 156.394387 Q 475.139881 155.740333 474.158801 154.105201 Q 468.599349 149.199802 466.637190 146.583589 Q 464.675030 143.967377 462.385844 141.678191 Q 462.385844 141.678191 461.731791 141.024137 L 461.077738 140.370084 L 453.556126 134.483606 L 451.266940 132.194420 Q 447.669648 129.905234 443.908842 127.289021 Q 440.148037 124.672808 436.550744 123.691729 Q 436.223718 123.691729 435.896691 123.364702 Q 435.569664 123.037675 434.915611 123.037675 Q 432.953452 122.383622 430.010213 122.383622 Q 429.029133 122.056596 426.739947 122.056596 Q 426.739947 121.402543 425.431840 121.402543 Q 424.450761 121.402543 423.796708 121.729569 Q 423.142654 122.056596 420.526442 122.383622 L 420.853468 122.056596 Q 420.526442 122.056596 420.199415 122.383622 L 419.872389 122.383622 L 417.583203 123.691729 Q 415.621043 124.999835 414.312937 127.125508 Q 413.004830 129.251180 412.677804 131.213340 Q 412.350777 133.829553 412.023751 136.282252 Q 411.696724 138.734951 413.004830 142.332244 L 413.004830 142.659270 L 411.042671 141.351164 L 408.426458 139.061978 Q 407.118352 137.426845 404.992679 136.445765 Q 402.867006 135.464685 401.231874 134.483606 L 400.577820 134.156579 Q 397.961608 132.521446 396.162962 131.867393 Q 394.364315 131.213340 393.056209 130.559287 Q 392.729182 130.559287 392.402156 130.395773 Q 392.075129 130.232260 391.748103 130.232260 Q 391.094049 129.905234 390.603510 130.232260 Q 390.112970 130.559287 389.131890 130.559287 L 387.496757 130.232260 Q 386.515677 130.232260 385.207571 131.213340 Q 383.899465 131.540367 383.735951 131.540367 Q 383.572438 131.540367 383.245412 133.175499 Q 383.245412 133.829553 382.754872 133.993066 Q 382.264332 134.156579 382.264332 134.483606 L 382.918385 139.061978 L 384.226491 141.678191 L 383.572438 141.351164 L 384.553518 143.640350 L 386.188651 146.583589 L 388.804863 150.507908 Q 389.131890 150.834935 389.131890 151.488988 L 390.767023 153.778174 L 398.288634 163.261945 L 397.634581 162.934918 Q 398.288634 163.588971 398.942687 164.079511 Q 399.596741 164.570051 400.250794 165.224104 L 404.502139 168.821397 L 407.118352 171.110583 L 406.791325 170.456530 L 412.677804 174.707875 Q 414.312937 176.015982 418.400769 177.324088 Q 422.488601 178.632194 425.104814 178.632194 Z M 390.439996 139.716031 Q 389.785943 138.407925 390.439996 138.244411 Q 391.094049 138.080898 392.565669 138.734951 Q 394.037289 139.389004 395.835935 140.370084 Q 397.634581 141.351164 398.615661 142.005217 Q 403.521060 144.948456 406.954839 147.401156 Q 410.388618 149.853855 413.985910 153.451147 L 419.218335 158.683573 Q 419.872389 159.337626 419.872389 159.337626 Q 420.526442 160.645732 421.507522 161.626812 Q 422.488601 162.607892 423.142654 163.915998 L 426.739947 168.494370 Q 426.412920 168.821397 426.576434 169.311937 Q 426.739947 169.802476 426.739947 170.456530 L 425.431840 171.764636 L 423.142654 171.764636 Q 421.180495 171.764636 419.545362 170.456530 L 416.929149 169.148423 Q 416.275096 168.821397 415.294016 168.167344 Q 413.331857 166.859237 412.677804 166.532211 Q 412.677804 166.532211 412.350777 165.878158 L 408.099432 162.280865 Q 407.445379 161.626812 406.300786 160.482219 Q 405.156192 159.337626 404.502139 159.010599 Q 403.848086 157.048440 401.885927 156.394387 L 401.231874 154.759254 L 395.672422 148.218722 L 393.056209 144.294403 L 390.767023 141.024137 Z M 549.701941 271.834770 Q 550.683021 271.180717 550.683021 270.853690 Q 551.010048 270.199637 551.010048 268.728017 Q 551.010048 267.256398 551.010048 266.602344 Q 551.010048 265.948291 550.846534 264.803698 Q 550.683021 263.659105 550.355994 263.005052 Q 550.355994 262.678025 550.028968 262.187486 Q 549.701941 261.696946 549.701941 261.369919 Q 549.374915 260.715866 549.374915 259.734786 L 548.393835 256.464520 L 542.180330 242.402377 L 541.199250 240.113191 Q 540.545197 239.459138 540.545197 239.132112 L 539.891144 238.478058 Q 539.237091 237.824005 539.237091 237.169952 L 538.256011 233.899686 Q 537.274931 233.245633 537.274931 232.591580 L 535.966825 230.302394 L 535.966825 228.994288 Q 534.658718 227.686181 534.658718 227.032128 L 526.156027 213.624038 L 526.156027 214.278091 Q 525.501974 213.297012 524.847921 212.479445 Q 524.193868 211.661879 523.866841 210.680799 Q 523.212788 210.026746 522.885762 209.863233 Q 522.558735 209.699719 521.904682 207.083507 L 519.615496 203.813241 Q 518.961443 203.159188 518.143876 202.014595 Q 517.326310 200.870002 517.326310 200.215948 L 513.401991 195.637576 Q 514.056044 195.964603 513.238477 194.983523 Q 512.420911 194.002443 511.766858 193.348390 L 510.785778 191.713257 L 506.534433 186.153806 L 501.956060 180.921380 L 498.685795 176.997061 L 498.358768 176.015982 L 493.780396 170.456530 L 491.818236 168.494370 L 492.145263 168.494370 L 485.931758 161.953839 L 479.718253 155.413307 L 475.793934 151.488988 L 474.158801 149.526828 L 472.850695 147.564669 L 473.177721 147.891696 L 471.869615 144.294403 L 470.561509 141.678191 L 468.272323 135.137659 Q 467.618269 134.156579 467.618269 132.521446 L 467.945296 132.848473 Q 468.272323 132.848473 468.926376 133.502526 Q 469.580429 134.156579 470.234482 134.810632 Q 470.888535 135.464685 471.869615 136.118739 Q 473.504748 137.426845 475.139881 139.225491 Q 476.775014 141.024137 478.083120 142.332244 L 487.239864 152.470068 Q 489.529050 154.432227 491.491210 156.721413 Q 493.453369 159.010599 495.415529 161.626812 L 501.302007 167.840317 L 506.207406 173.072742 L 507.842539 174.380849 L 510.785778 176.997061 L 512.093884 179.286247 L 515.691177 181.902460 L 515.037124 181.248407 L 517.326310 182.883540 L 518.634416 184.191646 Q 518.961443 184.191646 519.288469 184.518673 Q 519.942522 185.172726 520.269549 185.172726 L 522.231708 186.807859 L 523.539815 187.788938 L 523.212788 187.461912 L 525.501974 188.770018 L 525.174948 188.115965 Q 524.520894 187.134885 525.992514 188.770018 Q 527.464134 190.405151 528.445213 191.059204 Q 529.099267 191.059204 529.426293 191.386231 Q 529.753320 191.713257 530.407373 192.040284 L 530.734400 192.040284 Q 530.734400 192.040284 532.042506 192.694337 Q 532.369532 193.021364 533.677639 193.021364 Q 534.331692 193.021364 534.495205 193.184877 Q 534.658718 193.348390 534.985745 193.348390 L 537.601958 193.348390 Q 537.601958 193.021364 537.928984 193.021364 L 538.583037 193.021364 Q 538.910064 193.021364 539.237091 192.694337 L 540.218170 191.713257 Q 540.545197 190.732178 540.545197 190.078124 Q 541.199250 189.097045 541.199250 188.115965 L 541.199250 184.845699 Q 540.545197 183.864619 540.545197 181.902460 L 539.237091 178.959221 Q 538.583037 177.324088 537.601958 174.871388 Q 536.620878 172.418689 535.312772 170.783556 L 533.023586 167.513290 L 531.715479 165.878158 L 530.734400 164.897078 L 529.099267 161.953839 L 528.445213 161.626812 Q 527.137107 159.664652 526.156027 159.337626 Q 526.483054 159.337626 525.992514 158.847086 Q 525.501974 158.356546 525.174948 158.029520 Q 524.193868 157.375466 523.376301 156.721413 Q 522.558735 156.067360 521.577655 155.086280 L 517.980363 151.816015 L 517.980363 151.488988 Q 517.980363 151.161961 518.143876 151.161961 Q 518.307389 151.161961 518.307389 150.507908 Q 518.961443 149.199802 518.961443 147.564669 Q 518.961443 146.910616 519.288469 146.256563 Q 519.615496 145.602509 519.615496 144.948456 Q 519.942522 141.024137 522.231708 136.772792 Q 522.558735 135.791712 522.722248 135.464685 Q 522.885762 135.137659 523.212788 134.483606 L 524.847921 132.848473 L 527.137107 131.213340 Q 528.772240 130.886313 530.080346 130.559287 Q 531.388453 130.232260 532.369532 130.232260 Q 534.004665 130.232260 535.803312 130.559287 Q 537.601958 130.886313 539.237091 131.540367 Q 541.199250 132.194420 543.488436 132.848473 Q 545.777622 133.502526 548.066808 135.137659 L 551.991127 136.772792 L 554.607340 138.734951 Q 557.223553 140.043058 559.185712 141.351164 Q 561.147872 142.659270 563.437058 144.948456 Q 565.399217 146.256563 567.524890 147.728182 Q 569.650563 149.199802 571.285696 150.834935 L 573.574882 153.124121 Q 574.228935 153.124121 574.555961 153.124121 Q 574.882988 153.124121 576.191094 151.161961 L 576.191094 149.853855 Q 575.210014 148.872775 574.882988 147.564669 Q 573.901908 145.602509 572.593802 144.294403 Q 571.939749 143.640350 569.977589 142.332244 Q 568.015430 141.024137 567.361377 140.043058 Q 567.034350 140.043058 567.034350 139.716031 L 564.418137 138.080898 L 562.783004 136.445765 L 560.493818 135.464685 L 557.223553 132.521446 L 554.607340 130.886313 L 552.318154 130.232260 Q 550.355994 129.251180 549.374915 128.270101 Q 549.047888 128.270101 549.047888 128.106587 Q 549.047888 127.943074 548.720861 127.943074 L 548.393835 127.943074 L 544.142489 125.980915 Q 543.488436 125.980915 542.997896 125.653888 Q 542.507356 125.326861 541.853303 125.326861 Q 538.256011 124.018755 532.042506 124.018755 Q 531.061426 124.018755 529.916833 124.018755 Q 528.772240 124.018755 527.137107 124.345782 Q 526.483054 124.999835 525.011434 125.326861 Q 523.539815 125.653888 522.885762 126.634968 Q 521.577655 127.289021 520.269549 128.597127 Q 518.961443 129.905234 518.307389 130.886313 L 517.326310 132.521446 Q 517.326310 133.175499 516.345230 134.156579 L 514.710097 139.716031 Q 514.710097 142.005217 514.056044 144.621430 Q 514.056044 144.948456 513.074964 145.929536 Q 513.074964 146.583589 513.074964 147.237642 Q 513.074964 147.891696 512.747938 148.545749 L 512.093884 149.526828 Q 511.766858 148.872775 511.439831 148.872775 Q 511.112805 148.872775 511.112805 148.709262 Q 511.112805 148.545749 510.458751 148.545749 Q 510.458751 147.891696 508.823619 147.891696 L 509.150645 148.218722 Q 508.169565 147.564669 506.207406 147.564669 L 505.880379 147.891696 Q 505.553353 147.891696 504.899300 148.545749 L 502.937140 150.180882 L 502.937140 152.797094 Q 502.937140 153.451147 503.100653 154.432227 Q 503.264167 155.413307 504.245246 156.721413 Q 504.245246 157.048440 504.572273 157.375466 Q 504.899300 157.702493 505.226326 158.356546 L 506.861459 159.991679 L 509.150645 160.645732 Q 509.477672 160.645732 509.968212 160.809245 Q 510.458751 160.972759 511.112805 160.972759 L 513.401991 159.664652 Q 514.056044 159.664652 514.056044 159.501139 Q 514.056044 159.337626 514.383070 159.337626 Q 515.037124 159.664652 515.854690 159.828166 Q 516.672257 159.991679 517.326310 160.645732 Q 518.307389 161.626812 519.451982 162.607892 Q 520.596576 163.588971 521.577655 164.897078 L 524.193868 167.513290 L 526.156027 169.802476 L 528.445213 172.091663 L 530.080346 174.053822 Q 530.080346 174.053822 530.407373 174.707875 L 533.350612 179.613274 L 534.985745 182.229487 L 534.658718 181.902460 L 535.966825 184.845699 Q 534.985745 184.845699 534.168179 184.355159 Q 533.350612 183.864619 532.369532 183.537593 Q 530.734400 182.883540 528.935753 181.575433 Q 527.137107 180.267327 525.501974 178.959221 L 523.539815 177.978141 L 522.885762 177.324088 L 519.942522 174.707875 Q 519.288469 174.053822 518.307389 173.399769 Q 517.326310 172.745716 516.999283 172.091663 L 514.056044 169.148423 L 508.823619 164.570051 L 507.515512 163.261945 Q 506.534433 161.953839 505.062813 160.972759 Q 503.591193 159.991679 502.937140 158.356546 Q 500.647954 156.067360 499.012821 154.105201 Q 497.377688 152.143041 495.415529 150.180882 L 491.491210 146.256563 L 491.818236 146.256563 Q 490.183103 144.948456 488.874997 143.313323 Q 487.566891 141.678191 486.258785 140.697111 L 486.258785 141.024137 Q 484.623652 137.426845 480.372306 133.829553 L 472.850695 125.653888 Q 469.580429 122.383622 468.599349 122.056596 L 468.599349 122.383622 Q 466.964216 121.402543 466.310163 121.402543 Q 465.983137 121.402543 465.819623 121.075516 Q 465.656110 120.748489 464.348004 120.748489 Q 463.693950 120.748489 463.203411 121.239029 Q 462.712871 121.729569 461.731791 122.383622 Q 461.404764 122.710649 461.404764 123.037675 Q 461.077738 123.364702 461.077738 124.672808 Q 461.077738 125.326861 460.914225 125.653888 Q 460.750711 125.980915 460.750711 127.289021 L 460.750711 128.924154 Q 460.750711 129.578207 460.914225 129.578207 Q 461.077738 129.578207 461.077738 130.232260 Q 461.077738 131.540367 461.404764 132.194420 Q 461.404764 133.175499 461.731791 134.320092 Q 462.058818 135.464685 462.058818 136.118739 L 463.693950 141.024137 Q 463.693950 140.697111 464.020977 141.351164 Q 464.348004 142.005217 464.348004 142.332244 Q 464.348004 144.948456 465.656110 148.872775 Q 466.964216 152.797094 468.599349 155.740333 L 471.869615 163.261945 Q 471.869615 163.915998 472.850695 164.897078 Q 473.831774 167.513290 474.322314 168.494370 Q 474.812854 169.475450 475.466907 170.783556 L 475.466907 170.456530 L 482.661492 185.172726 L 490.837157 198.907842 L 492.472290 201.524055 L 494.761476 206.102427 Q 494.761476 206.756480 495.252015 207.083507 Q 495.742555 207.410533 495.742555 207.737560 L 498.031741 210.680799 L 497.377688 210.353772 L 499.339848 213.297012 Q 499.666874 213.951065 499.830388 214.768631 Q 499.993901 215.586198 500.974981 216.567278 L 502.937140 219.837543 Q 503.591193 221.145650 504.572273 222.617269 Q 505.553353 224.088889 507.842539 228.340234 Q 510.458751 232.591580 513.729017 236.515899 Q 516.999283 240.440218 519.942522 244.691563 L 526.156027 252.867228 L 527.137107 254.502361 Q 529.753320 256.464520 530.734400 259.407760 L 533.023586 261.696946 L 536.293851 265.948291 L 537.601958 267.256398 L 540.545197 270.853690 L 540.872224 270.853690 Q 541.199250 270.853690 542.180330 271.834770 L 543.815463 272.488823 L 545.777622 273.469903 Q 546.104649 273.469903 546.268162 273.306389 Q 546.431675 273.142876 546.758702 273.142876 L 547.085729 272.815849 Z M 476.447987 159.991679 L 479.391226 163.588971 L 488.874997 174.380849 L 491.491210 177.324088 Q 491.818236 177.978141 492.308776 178.468681 Q 492.799316 178.959221 493.126343 179.613274 L 498.031741 185.499752 Q 498.685795 186.153806 499.503361 187.298399 Q 500.320927 188.442992 500.974981 190.078124 L 502.937140 192.040284 Q 502.937140 192.694337 505.062813 195.474063 Q 507.188486 198.253789 508.169565 199.561895 L 507.842539 198.907842 L 509.477672 201.197028 L 512.747938 205.448374 L 513.074964 206.102427 Q 512.420911 205.448374 513.401991 206.919993 Q 514.383070 208.391613 515.037124 209.372693 L 517.326310 211.988905 Q 517.326310 212.642959 518.634416 213.624038 L 519.288469 215.259171 Q 519.288469 215.913224 519.779009 216.240251 Q 520.269549 216.567278 520.269549 216.894304 L 521.577655 218.529437 Q 522.558735 219.837543 523.376301 221.472676 Q 524.193868 223.107809 525.501974 225.396995 L 529.099267 230.629421 L 529.753320 232.591580 Q 530.734400 234.553739 531.878993 236.025359 Q 533.023586 237.496979 533.350612 238.805085 Q 533.350612 239.459138 534.004665 240.440218 Q 534.331692 241.094271 534.822232 241.911838 Q 535.312772 242.729404 535.966825 243.383457 L 535.966825 243.056431 Q 535.966825 243.710484 536.130338 244.201024 Q 536.293851 244.691563 536.293851 245.345617 L 538.256011 248.942909 L 539.891144 252.540201 Q 540.545197 254.502361 541.362763 257.282087 Q 542.180330 260.061813 542.834383 261.696946 Q 542.507356 261.369919 542.507356 261.369919 L 540.218170 258.753706 Q 539.891144 258.099653 539.564117 257.609113 Q 539.237091 257.118574 538.583037 256.464520 L 534.658718 251.559122 L 528.445213 244.037510 Q 526.810081 242.075351 524.520894 239.132112 Q 522.231708 236.188872 518.961443 230.956447 L 516.672257 227.359155 Q 515.691177 225.724022 514.546584 223.598349 Q 513.401991 221.472676 510.785778 218.202410 L 506.534433 211.007826 Q 505.880379 210.353772 504.899300 208.718640 Q 503.918220 207.083507 502.610114 204.794321 L 502.610114 205.121347 L 499.993901 200.215948 L 498.685795 197.599736 L 497.050662 194.983523 L 497.377688 195.637576 L 494.107422 190.078124 L 490.183103 183.537593 L 486.258785 176.670035 L 486.258785 176.997061 Z M 756.055714 239.459138 Q 758.344900 239.459138 760.307059 239.459138 Q 762.269219 239.459138 764.558405 239.132112 Q 766.847591 238.805085 768.809750 238.805085 Q 770.771910 238.805085 773.061096 238.805085 Q 773.715149 238.805085 775.023255 237.660492 Q 776.331362 236.515899 776.331362 235.861846 L 776.331362 233.899686 Q 775.677309 232.918607 774.205689 231.774014 Q 772.734069 230.629421 771.425963 230.629421 Q 768.155697 230.956447 765.048945 231.119960 Q 761.942192 231.283474 758.671926 231.283474 Q 753.766528 231.610500 750.496262 231.610500 Q 747.225996 231.610500 743.792217 231.610500 Q 740.358438 231.610500 736.107092 231.610500 Q 731.855747 231.610500 724.988189 231.283474 Q 719.428737 230.629421 714.359825 230.138881 Q 709.290913 229.648341 704.385514 229.321314 Q 703.731461 229.321314 702.750381 228.994288 Q 701.115248 228.994288 700.134168 228.667261 Q 699.480115 228.667261 698.826062 228.503748 Q 698.172009 228.340234 697.190929 228.340234 Q 695.228770 228.013208 692.939584 227.686181 Q 690.650398 227.359155 689.015265 227.359155 Q 687.380132 226.705102 684.763919 226.541588 Q 682.147706 226.378075 679.531494 225.724022 Q 678.550414 225.396995 677.732848 225.560508 Q 676.915281 225.724022 674.299068 225.069969 L 664.815298 222.780783 Q 664.161244 222.780783 663.670705 222.617269 Q 663.180165 222.453756 662.526112 222.453756 Q 661.872058 221.799703 659.909899 221.799703 Q 659.255846 221.799703 658.928819 221.636190 Q 658.601793 221.472676 657.947739 221.472676 L 643.231543 218.202410 L 639.634251 214.278091 L 631.458586 203.813241 Q 629.823453 200.870002 627.697781 198.417302 Q 625.572108 195.964603 623.609948 193.348390 L 614.780231 183.537593 Q 612.164018 179.940300 609.547805 177.324088 L 604.642407 171.764636 L 601.045114 167.186264 L 597.120795 163.261945 Q 593.523503 160.645732 590.907290 157.866006 Q 588.291078 155.086280 585.674865 152.470068 L 582.404599 147.891696 L 579.788387 143.313323 Q 579.134333 142.659270 579.134333 142.659270 Q 578.807307 142.332244 578.807307 142.005217 Q 578.807307 141.024137 578.480280 140.697111 Q 577.499201 139.061978 577.499201 138.407925 Q 577.172174 137.753872 577.172174 135.791712 Q 577.172174 135.464685 577.008661 134.974146 Q 576.845147 134.483606 576.845147 133.829553 Q 576.845147 133.502526 576.518121 133.011986 Q 576.191094 132.521446 576.191094 131.540367 Q 576.191094 131.213340 576.518121 130.722800 Q 576.845147 130.232260 576.845147 129.905234 L 576.518121 129.578207 L 576.845147 129.578207 Q 576.845147 128.924154 577.008661 128.597127 Q 577.172174 128.270101 577.499201 127.616048 Q 577.826227 125.653888 580.442440 125.653888 Q 581.423520 124.345782 585.674865 124.345782 Q 587.637025 124.018755 590.907290 125.653888 L 594.504583 126.961994 Q 595.485663 127.616048 597.447822 128.270101 Q 599.409981 128.924154 600.064035 128.924154 Q 600.391061 128.924154 600.718088 129.251180 Q 601.045114 129.251180 601.045114 129.414694 Q 601.045114 129.578207 601.372141 129.578207 L 603.007274 130.232260 L 603.988354 130.232260 L 605.623487 131.540367 L 608.239699 133.502526 Q 608.566726 133.502526 608.893752 133.666039 Q 609.220779 133.829553 610.855912 134.483606 L 613.799151 136.118739 L 613.472124 136.118739 L 616.742390 138.080898 L 616.415364 137.753872 L 618.377523 139.061978 Q 619.031576 140.043058 620.012656 140.697111 Q 620.993736 141.351164 621.974816 142.005217 Q 622.628869 142.005217 623.446435 142.659270 Q 624.264002 143.313323 624.591028 143.640350 L 627.207241 144.948456 L 626.226161 144.621430 Q 626.880214 145.602509 628.024807 146.093049 Q 629.169400 146.583589 629.823453 147.237642 Q 630.150480 147.237642 630.477507 147.728182 Q 630.804533 148.218722 631.131560 148.218722 Q 633.420746 151.161961 635.709932 152.797094 L 638.326145 155.086280 L 638.326145 154.432227 Q 639.634251 155.740333 640.615331 155.740333 Q 640.942357 155.740333 641.105871 156.067360 Q 641.269384 156.394387 642.250464 156.394387 Q 644.539650 156.394387 644.539650 153.778174 L 643.231543 152.470068 Q 643.231543 151.488988 642.250464 150.507908 L 637.672091 146.256563 L 633.747772 142.332244 L 630.477507 140.370084 L 628.188321 138.080898 Q 627.534267 138.080898 626.716701 137.426845 Q 625.899135 136.772792 625.572108 136.118739 L 620.339683 131.540367 L 620.339683 132.194420 Q 619.031576 130.886313 618.377523 130.886313 L 618.050497 130.232260 Q 617.396443 129.578207 616.415364 129.578207 Q 615.761311 128.924154 614.943744 128.597127 Q 614.126178 128.270101 613.472124 127.616048 Q 611.509965 126.307941 611.182938 126.307941 Q 610.201859 125.980915 609.874832 125.980915 L 608.239699 125.326861 L 608.566726 125.326861 L 605.950513 123.364702 Q 605.296460 123.364702 604.642407 123.201189 Q 603.988354 123.037675 603.007274 123.037675 Q 602.353221 121.729569 601.045114 121.729569 Q 600.391061 121.729569 600.227548 121.566056 Q 600.064035 121.402543 599.737008 121.402543 Q 598.755928 120.421463 597.120795 120.421463 L 592.215397 119.113356 L 589.272157 118.132277 Q 588.945131 118.132277 588.781618 117.968763 Q 588.618104 117.805250 588.291078 117.805250 Q 586.982971 117.151197 585.020812 117.805250 Q 584.366759 117.805250 584.039732 117.641737 Q 583.712706 117.478224 583.058652 117.478224 L 580.442440 117.805250 Q 576.191094 118.786330 574.719475 119.603896 Q 573.247855 120.421463 571.612722 122.056596 Q 569.323536 124.345782 569.323536 126.307941 L 569.323536 128.270101 Q 569.323536 128.597127 569.160023 128.760641 Q 568.996509 128.924154 568.996509 129.578207 L 568.996509 130.232260 Q 568.669483 131.540367 569.323536 133.829553 L 569.323536 137.753872 L 570.631642 143.313323 L 577.172174 159.337626 L 579.788387 164.570051 L 583.712706 172.745716 L 585.347839 175.361928 Q 585.347839 176.670035 586.655945 177.978141 L 586.001892 177.324088 L 587.637025 179.940300 Q 588.291078 180.594354 588.781618 181.575433 Q 589.272157 182.556513 589.926211 184.191646 L 596.466742 195.637576 Q 597.447822 196.618656 598.428902 197.763249 Q 599.409981 198.907842 599.409981 199.561895 Q 600.064035 201.197028 601.208628 203.159188 Q 602.353221 205.121347 603.334300 206.756480 Q 603.988354 207.410533 604.151867 208.064586 Q 604.315380 208.718640 604.969433 209.372693 L 604.642407 209.372693 L 592.542423 206.756480 Q 589.926211 205.775400 586.492432 205.284860 Q 583.058652 204.794321 580.115413 204.794321 Q 577.499201 204.140267 574.392448 203.649728 Q 571.285696 203.159188 568.342456 202.832161 L 563.764084 202.832161 Q 562.783004 203.159188 560.820845 203.159188 Q 559.839765 203.813241 558.531659 203.976754 Q 557.223553 204.140267 556.569499 204.794321 Q 555.915446 204.794321 554.607340 206.756480 L 554.934366 209.372693 Q 554.934366 210.680799 557.877606 210.680799 L 560.820845 210.680799 Q 561.147872 210.680799 561.147872 210.517286 Q 561.147872 210.353772 561.474898 210.353772 L 568.669483 210.353772 L 580.442440 211.988905 Q 587.309998 212.315932 593.850530 214.605118 L 606.604566 216.894304 L 611.836992 217.875384 Q 612.491045 219.183490 613.308611 220.818623 Q 614.126178 222.453756 615.107257 223.107809 L 616.415364 225.069969 L 619.358603 228.994288 L 621.647789 231.937527 L 621.647789 231.610500 Q 621.647789 232.918607 622.955895 233.572660 Q 623.282922 233.899686 623.282922 234.553739 L 626.226161 237.169952 L 628.515347 240.113191 L 632.439666 244.037510 Q 632.766693 244.364537 632.766693 244.691563 L 637.672091 249.596962 L 644.212623 254.502361 L 645.520729 255.156414 Q 646.828836 255.810467 648.463969 256.955060 Q 650.099102 258.099653 649.445048 258.099653 L 652.715314 260.061813 L 654.677474 261.369919 Q 655.658553 261.696946 657.947739 261.696946 Q 658.274766 261.696946 659.582872 261.042893 Q 660.890979 260.388839 661.218005 260.061813 L 662.526112 258.753706 Q 662.526112 257.445600 663.180165 256.791547 L 663.180165 253.521281 Q 662.526112 252.867228 662.526112 252.049662 Q 662.526112 251.232095 662.526112 250.578042 Q 662.526112 249.923989 662.362598 249.106422 Q 662.199085 248.288856 662.199085 247.634803 L 661.218005 244.691563 Q 660.563952 243.383457 660.563952 242.402377 L 656.312607 236.188872 Q 655.658553 235.534819 654.840987 234.063200 Q 654.023420 232.591580 654.350447 232.918607 L 650.426128 228.013208 L 650.099102 227.359155 L 654.350447 228.340234 Q 655.985580 228.340234 657.130173 228.503748 Q 658.274766 228.667261 659.909899 228.994288 L 668.739617 230.956447 L 673.317989 231.937527 L 678.550414 233.245633 Q 681.166627 233.899686 683.782839 233.899686 Q 686.399052 234.553739 689.996344 234.880766 Q 693.593637 235.207793 696.209849 235.207793 Q 697.190929 235.861846 698.826062 236.025359 Q 700.461195 236.188872 701.442275 236.188872 Q 702.423354 236.515899 703.077408 236.515899 L 712.888205 237.496979 L 723.026029 238.805085 Q 723.680082 238.805085 724.007109 238.968598 Q 724.334135 239.132112 725.642242 239.132112 L 734.144933 239.132112 Q 737.088172 239.132112 739.704385 239.295625 Q 742.320597 239.459138 745.917890 239.459138 Z M 587.309998 162.607892 Q 587.964051 163.588971 589.108644 165.060591 Q 590.253237 166.532211 590.907290 167.186264 L 599.082955 176.015982 L 602.680247 179.940300 Q 603.661327 180.921380 604.478893 181.738947 Q 605.296460 182.556513 605.950513 184.191646 L 614.126178 193.021364 L 621.647789 201.524055 L 625.572108 206.756480 L 630.150480 211.988905 Q 630.804533 212.969985 631.622100 214.114578 Q 632.439666 215.259171 633.093719 216.240251 Q 628.188321 215.259171 623.282922 213.624038 L 616.415364 212.315932 L 616.415364 211.988905 L 610.855912 202.832161 L 605.950513 195.964603 Q 603.661327 192.694337 601.372141 188.606505 Q 599.082955 184.518673 597.120795 179.940300 L 595.812689 177.978141 Q 592.869450 173.072742 590.580264 168.821397 Q 589.599184 168.167344 589.599184 167.513290 Z M 622.301842 220.164570 L 624.591028 221.145650 L 634.074799 223.107809 Q 635.709932 223.434836 637.181552 223.761862 Q 638.653171 224.088889 640.288304 224.742942 L 640.942357 225.396995 L 644.866676 231.283474 L 649.772075 238.805085 L 649.772075 238.478058 L 651.734234 241.421298 Q 651.734234 241.748324 652.061261 242.075351 Q 652.715314 242.729404 652.715314 242.729404 Q 652.715314 243.710484 653.696394 245.345617 L 655.331527 247.961829 Q 655.985580 250.251015 655.168014 251.068582 Q 654.350447 251.886148 650.426128 249.596962 Q 646.501809 247.307776 643.231543 243.383457 L 641.923437 242.402377 L 640.615331 240.767245 L 639.307224 239.459138 Q 638.653171 238.805085 637.835605 237.987519 Q 637.018038 237.169952 637.345065 237.824005 Q 636.363985 236.515899 635.055879 235.861846 L 631.458586 232.264553 L 629.823453 229.648341 L 626.226161 225.724022 L 623.609948 222.453756 Z M 654.350447 232.918607 L 654.350447 233.245633 L 654.677474 233.572660 Z M 669.720696 178.632194 Q 670.701776 178.632194 671.682856 178.141654 Q 672.663936 177.651114 673.645015 176.997061 Q 674.953122 176.997061 675.607175 175.688955 Q 676.588255 175.034902 676.588255 174.380849 Q 676.588255 173.399769 677.078794 173.072742 Q 677.569334 172.745716 677.569334 171.764636 L 677.569334 172.091663 Q 678.877441 169.802476 678.550414 168.003830 Q 678.223387 166.205184 677.569334 164.570051 L 675.280148 161.626812 L 672.336909 157.702493 Q 672.009882 157.375466 671.355829 156.721413 Q 670.701776 156.067360 670.374750 155.413307 Q 670.047723 155.086280 670.047723 154.759254 Q 669.393670 154.105201 669.393670 154.105201 Q 669.393670 154.105201 668.739617 153.451147 Q 667.431510 151.488988 666.123404 148.055209 Q 664.815298 144.621430 664.161244 142.659270 L 662.853138 138.407925 Q 662.853138 137.753872 662.689625 137.590358 Q 662.526112 137.426845 662.526112 136.772792 Q 662.526112 136.118739 662.853138 135.137659 Q 662.853138 134.483606 663.016651 133.829553 Q 663.180165 133.175499 663.180165 132.521446 L 664.161244 130.559287 L 664.161244 130.886313 Q 664.161244 131.540367 665.142324 130.559287 L 664.815298 130.559287 L 667.104484 128.924154 L 668.412590 128.924154 Q 668.739617 128.924154 669.066643 128.597127 Q 669.393670 128.270101 669.720696 128.270101 Q 670.047723 128.924154 670.374750 128.597127 Q 670.701776 128.270101 671.355829 128.270101 Q 672.009882 128.924154 672.990962 128.924154 Q 673.972042 128.924154 674.626095 128.924154 Q 675.280148 128.924154 675.443662 129.251180 Q 675.607175 129.578207 676.261228 129.578207 L 678.877441 130.232260 L 680.839600 130.886313 L 683.782839 132.521446 L 689.996344 136.772792 L 693.266610 138.734951 Q 694.901743 140.370084 696.373363 141.841704 Q 697.844982 143.313323 699.480115 144.294403 L 702.750381 147.237642 L 714.196311 158.029520 Q 714.850365 159.010599 715.667931 159.174113 Q 716.485497 159.337626 718.120630 159.991679 L 719.755763 158.683573 Q 721.063870 157.048440 720.409816 156.394387 Q 719.755763 155.740333 718.774683 154.105201 Q 713.215232 149.199802 711.253072 146.583589 Q 709.290913 143.967377 707.001727 141.678191 Q 707.001727 141.678191 706.347673 141.024137 L 705.693620 140.370084 L 698.172009 134.483606 L 695.882823 132.194420 Q 692.285530 129.905234 688.524725 127.289021 Q 684.763919 124.672808 681.166627 123.691729 Q 680.839600 123.691729 680.512574 123.364702 Q 680.185547 123.037675 679.531494 123.037675 Q 677.569334 122.383622 674.626095 122.383622 Q 673.645015 122.056596 671.355829 122.056596 Q 671.355829 121.402543 670.047723 121.402543 Q 669.066643 121.402543 668.412590 121.729569 Q 667.758537 122.056596 665.142324 122.383622 L 665.469351 122.056596 Q 665.142324 122.056596 664.815298 122.383622 L 664.488271 122.383622 L 662.199085 123.691729 Q 660.236926 124.999835 658.928819 127.125508 Q 657.620713 129.251180 657.293686 131.213340 Q 656.966660 133.829553 656.639633 136.282252 Q 656.312607 138.734951 657.620713 142.332244 L 657.620713 142.659270 L 655.658553 141.351164 L 653.042341 139.061978 Q 651.734234 137.426845 649.608562 136.445765 Q 647.482889 135.464685 645.847756 134.483606 L 645.193703 134.156579 Q 642.577490 132.521446 640.778844 131.867393 Q 638.980198 131.213340 637.672091 130.559287 Q 637.345065 130.559287 637.018038 130.395773 Q 636.691012 130.232260 636.363985 130.232260 Q 635.709932 129.905234 635.219392 130.232260 Q 634.728852 130.559287 633.747772 130.559287 L 632.112640 130.232260 Q 631.131560 130.232260 629.823453 131.213340 Q 628.515347 131.540367 628.351834 131.540367 Q 628.188321 131.540367 627.861294 133.175499 Q 627.861294 133.829553 627.370754 133.993066 Q 626.880214 134.156579 626.880214 134.483606 L 627.534267 139.061978 L 628.842374 141.678191 L 628.188321 141.351164 L 629.169400 143.640350 L 630.804533 146.583589 L 633.420746 150.507908 Q 633.747772 150.834935 633.747772 151.488988 L 635.382905 153.778174 L 642.904517 163.261945 L 642.250464 162.934918 Q 642.904517 163.588971 643.558570 164.079511 Q 644.212623 164.570051 644.866676 165.224104 L 649.118022 168.821397 L 651.734234 171.110583 L 651.407208 170.456530 L 657.293686 174.707875 Q 658.928819 176.015982 663.016651 177.324088 Q 667.104484 178.632194 669.720696 178.632194 Z M 635.055879 139.716031 Q 634.401826 138.407925 635.055879 138.244411 Q 635.709932 138.080898 637.181552 138.734951 Q 638.653171 139.389004 640.451817 140.370084 Q 642.250464 141.351164 643.231543 142.005217 Q 648.136942 144.948456 651.570721 147.401156 Q 655.004500 149.853855 658.601793 153.451147 L 663.834218 158.683573 Q 664.488271 159.337626 664.488271 159.337626 Q 665.142324 160.645732 666.123404 161.626812 Q 667.104484 162.607892 667.758537 163.915998 L 671.355829 168.494370 Q 671.028803 168.821397 671.192316 169.311937 Q 671.355829 169.802476 671.355829 170.456530 L 670.047723 171.764636 L 667.758537 171.764636 Q 665.796377 171.764636 664.161244 170.456530 L 661.545032 169.148423 Q 660.890979 168.821397 659.909899 168.167344 Q 657.947739 166.859237 657.293686 166.532211 Q 657.293686 166.532211 656.966660 165.878158 L 652.715314 162.280865 Q 652.061261 161.626812 650.916668 160.482219 Q 649.772075 159.337626 649.118022 159.010599 Q 648.463969 157.048440 646.501809 156.394387 L 645.847756 154.759254 L 640.288304 148.218722 L 637.672091 144.294403 L 635.382905 141.024137 Z" transform="scale(0.500000,0.500000) translate(34.000000,0.000000)" opacity="1.000000"></path>
    </g>
</svg>